<?xml version="1.0" encoding="UTF-8"?>
<!DOCTYPE svg PUBLIC "-//W3C//DTD SVG 1.1//EN" "http://www.w3.org/Graphics/SVG/1.1/DTD/svg11.dtd">
<svg xmlns="http://www.w3.org/2000/svg" version="1.1" width="512px" height="512px" style="shape-rendering:geometricPrecision; text-rendering:geometricPrecision; image-rendering:optimizeQuality; fill-rule:evenodd; clip-rule:evenodd" xmlns:xlink="http://www.w3.org/1999/xlink">
<g><path style="opacity:0.939" fill="#fefffe" d="M 511.5,278.5 C 511.5,287.833 511.5,297.167 511.5,306.5C 507.321,331.524 493.988,350.024 471.5,362C 453.101,370.767 433.768,376.434 413.5,379C 399.541,380.773 385.541,382.107 371.5,383C 333.346,384.104 295.18,384.604 257,384.5C 217.156,384.587 177.323,384.087 137.5,383C 112.765,381.943 88.432,378.276 64.5,372C 44.9628,367.102 28.4628,357.269 15,342.5C 6.8016,331.717 1.63494,319.717 -0.5,306.5C -0.5,296.833 -0.5,287.167 -0.5,277.5C 6.77508,242.13 24.4417,212.963 52.5,190C 83.3544,166.407 117.688,149.407 155.5,139C 222.165,122.333 288.832,122.333 355.5,139C 386.654,147.415 415.654,160.415 442.5,178C 447.129,180.905 451.296,184.405 455,188.5C 456.833,198.667 452.667,202.833 442.5,201C 405.937,173.586 364.937,156.919 319.5,151C 336.028,166.932 350.528,184.432 363,203.5C 367.812,213.721 364.646,218.888 353.5,219C 351.376,217.878 349.543,216.378 348,214.5C 331.681,187.512 310.514,165.012 284.5,147C 281.289,145.847 277.956,145.18 274.5,145C 251.734,143.862 229.067,144.862 206.5,148C 221.072,160.57 234.238,174.403 246,189.5C 248.865,197.082 246.365,201.749 238.5,203.5C 235.809,203.321 233.475,202.321 231.5,200.5C 217.234,182.066 200.568,166.233 181.5,153C 156.937,156.576 133.604,164.076 111.5,175.5C 141.785,200.378 163.452,231.378 176.5,268.5C 173.65,277.88 168.15,279.88 160,274.5C 146.164,239.009 124.331,209.509 94.5,186C 93.1667,185.333 91.8333,185.333 90.5,186C 64.7156,200.784 44.2156,220.951 29,246.5C 16.6504,269.572 14.3171,293.572 22,318.5C 27.7785,330.612 36.6119,339.779 48.5,346C 64.7043,353.635 81.7043,358.635 99.5,361C 121.749,363.788 144.082,365.455 166.5,366C 234.176,366.902 301.843,366.569 369.5,365C 393.195,364.122 416.528,360.788 439.5,355C 486.716,341.414 503.216,310.914 489,263.5C 482.793,246.741 473.793,231.741 462,218.5C 461.05,208.111 465.55,204.278 475.5,207C 495.096,227.026 507.096,250.859 511.5,278.5 Z"/></g>
<g><path style="opacity:0.922" fill="#fefffe" d="M 252.5,208.5 C 256.182,208.591 259.349,209.924 262,212.5C 270.803,227.404 277.969,243.071 283.5,259.5C 282.401,266.433 278.401,269.266 271.5,268C 269.714,267.215 268.214,266.049 267,264.5C 260.8,249.768 253.8,235.434 246,221.5C 244.493,215.179 246.66,210.846 252.5,208.5 Z"/></g>
<g><path style="opacity:0.909" fill="#fefffe" d="M 366.5,226.5 C 370.516,225.9 374.016,226.9 377,229.5C 380.194,236.083 383.194,242.75 386,249.5C 387.662,258.835 383.829,263.002 374.5,262C 372.714,261.215 371.214,260.049 370,258.5C 366.342,251.024 363.176,243.357 360.5,235.5C 361.286,231.567 363.286,228.567 366.5,226.5 Z"/></g>
</svg>
