<?xml version="1.0" encoding="UTF-8"?>
<!DOCTYPE svg PUBLIC "-//W3C//DTD SVG 1.1//EN" "http://www.w3.org/Graphics/SVG/1.1/DTD/svg11.dtd">
<svg xmlns="http://www.w3.org/2000/svg" version="1.1" width="512px" height="512px" style="shape-rendering:geometricPrecision; text-rendering:geometricPrecision; image-rendering:optimizeQuality; fill-rule:evenodd; clip-rule:evenodd" xmlns:xlink="http://www.w3.org/1999/xlink">
<g><path style="opacity:0.989" fill="#fefffe" d="M 114.5,-0.5 C 119.5,-0.5 124.5,-0.5 129.5,-0.5C 135.686,1.59647 141.353,4.76313 146.5,9C 153.407,15.2362 159.573,22.0695 165,29.5C 177.859,48.0455 189.526,67.3789 200,87.5C 207.022,102.305 208.688,117.639 205,133.5C 200.798,143.377 194.631,151.877 186.5,159C 174.956,168.88 163.122,178.38 151,187.5C 140.311,202.403 138.644,218.403 146,235.5C 154.723,255.293 165.723,273.626 179,290.5C 194.392,309.564 210.892,327.731 228.5,345C 241.985,357.245 256.985,367.245 273.5,375C 287.588,380.687 300.922,379.353 313.5,371C 325.599,357.896 338.599,345.896 352.5,335C 366.083,325.959 380.75,323.625 396.5,328C 412.088,333.789 426.088,342.122 438.5,353C 450.761,363.716 462.927,374.549 475,385.5C 480.487,391.809 485.487,398.476 490,405.5C 496.952,419.7 495.618,433.034 486,445.5C 470.716,460.457 454.55,474.29 437.5,487C 416.219,500.259 393.219,508.425 368.5,511.5C 356.5,511.5 344.5,511.5 332.5,511.5C 304.448,507.762 277.781,499.262 252.5,486C 206.72,459.58 166.22,426.413 131,386.5C 103.922,356.763 79.9223,324.763 59,290.5C 36.0455,253.304 22.0455,212.971 17,169.5C 13.369,122.735 26.369,81.4021 56,45.5C 68.8837,33.3154 82.0503,21.482 95.5,10C 101.327,5.42344 107.66,1.92344 114.5,-0.5 Z"/></g>
</svg>
