<?xml version="1.0" encoding="UTF-8"?>
<!DOCTYPE svg PUBLIC "-//W3C//DTD SVG 1.1//EN" "http://www.w3.org/Graphics/SVG/1.1/DTD/svg11.dtd">
<svg xmlns="http://www.w3.org/2000/svg" version="1.1" width="512px" height="512px" style="shape-rendering:geometricPrecision; text-rendering:geometricPrecision; image-rendering:optimizeQuality; fill-rule:evenodd; clip-rule:evenodd" xmlns:xlink="http://www.w3.org/1999/xlink">
<g><path style="opacity:0.968" fill="#fefffe" d="M 367.5,-0.5 C 371.833,-0.5 376.167,-0.5 380.5,-0.5C 390.204,4.05237 394.704,11.719 394,22.5C 393.144,26.5442 391.478,30.2108 389,33.5C 314.347,106.986 240.18,180.986 166.5,255.5C 240.18,330.014 314.347,404.014 389,477.5C 395.856,486.285 396.189,495.285 390,504.5C 387.21,507.465 384.043,509.798 380.5,511.5C 376.167,511.5 371.833,511.5 367.5,511.5C 365.727,510.108 363.727,508.941 361.5,508C 281.027,428.527 200.861,348.694 121,268.5C 115,259.833 115,251.167 121,242.5C 200.861,162.306 281.027,82.4726 361.5,3C 363.432,1.5415 365.432,0.374833 367.5,-0.5 Z"/></g>
</svg>
